<svg width="30" height="27" viewBox="0 0 30 27" fill="none" xmlns="http://www.w3.org/2000/svg">
<path id="search" d="M2.96667 26.625L12.9417 17.4375C13.7333 18.0208 14.6437 18.4826 15.6729 18.8229C16.7021 19.1632 17.7972 19.3333 18.9583 19.3333C21.8347 19.3333 24.2691 18.4158 26.2615 16.5807C28.2538 14.7457 29.25 12.5035 29.25 9.85417C29.25 7.20486 28.2538 4.96267 26.2615 3.1276C24.2691 1.29253 21.8347 0.375 18.9583 0.375C16.0819 0.375 13.6476 1.29253 11.6552 3.1276C9.66285 4.96267 8.66667 7.20486 8.66667 9.85417C8.66667 10.9236 8.85139 11.9323 9.22083 12.8802C9.59028 13.8281 10.0917 14.6667 10.725 15.3958L0.749999 24.5833L2.96667 26.625ZM18.9583 16.4167C16.9792 16.4167 15.2969 15.7786 13.9115 14.5026C12.526 13.2266 11.8333 11.6771 11.8333 9.85417C11.8333 8.03125 12.526 6.48177 13.9115 5.20573C15.2969 3.92969 16.9792 3.29167 18.9583 3.29167C20.9375 3.29167 22.6198 3.92969 24.0052 5.20573C25.3906 6.48177 26.0833 8.03125 26.0833 9.85417C26.0833 11.6771 25.3906 13.2266 24.0052 14.5026C22.6198 15.7786 20.9375 16.4167 18.9583 16.4167Z" fill="#1C1B1F"/>
</svg>
